<svg xmlns="http://www.w3.org/2000/svg" viewBox="0 0 170.53 32"><defs><style>.cls-1{fill:#fff;}.cls-2{fill:#53c203;}</style></defs><title>Asset 8</title><g id="Layer_2" data-name="Layer 2"><g id="Desktop"><path class="cls-1" d="M12.25,24.31l-.92-2.37H11.2A7,7,0,0,1,8.73,24a8,8,0,0,1-3.32.59,5.35,5.35,0,0,1-4-1.44A5.52,5.52,0,0,1,0,19.09,4.61,4.61,0,0,1,2,15a11.3,11.3,0,0,1,5.86-1.46l3-.09v-.77c0-1.77-.9-2.65-2.71-2.65A12.47,12.47,0,0,0,3.2,11.28L1.63,8.06A14.16,14.16,0,0,1,8.31,6.48,8.32,8.32,0,0,1,13.7,8a5.65,5.65,0,0,1,1.88,4.65V24.31Zm-1.41-8.09L9,16.28A5.83,5.83,0,0,0,5.91,17a2.36,2.36,0,0,0-1,2.1q0,2,2.31,2a3.68,3.68,0,0,0,2.65-.95,3.36,3.36,0,0,0,1-2.53Z"/><path class="cls-1" d="M35.75,24.34a7.2,7.2,0,0,1-2.2,5.71Q31.36,32,27,32a18.36,18.36,0,0,1-6.54-1V27.16A17.43,17.43,0,0,0,27.3,28.5c2.44,0,3.67-1.32,3.67-4v-.34l.14-2.14H31A5.53,5.53,0,0,1,26,24.63a5.62,5.62,0,0,1-4.87-2.43,11.15,11.15,0,0,1-1.73-6.59,11,11,0,0,1,1.79-6.7,5.83,5.83,0,0,1,4.93-2.39A5.89,5.89,0,0,1,31.2,9.08h.13l.39-2.24h4Zm-8-3.45a3.23,3.23,0,0,0,2.75-1.1,6.06,6.06,0,0,0,.83-3.57v-.58a7.13,7.13,0,0,0-.87-4,3.18,3.18,0,0,0-2.79-1.23q-3.36,0-3.36,5.28a7.3,7.3,0,0,0,.84,3.92A2.85,2.85,0,0,0,27.72,20.89Z"/><path class="cls-1" d="M48.64,24.63a9,9,0,0,1-6.59-2.33,8.79,8.79,0,0,1-2.38-6.6,9.68,9.68,0,0,1,2.2-6.79,7.83,7.83,0,0,1,6.07-2.39A7.66,7.66,0,0,1,53.7,8.63a7.93,7.93,0,0,1,2.07,5.82v2.32H44.5a4.58,4.58,0,0,0,1.2,3.17,4.23,4.23,0,0,0,3.16,1.14,13,13,0,0,0,3-.33,14.92,14.92,0,0,0,2.94-1.05v3.69a10.82,10.82,0,0,1-2.67.93A17.09,17.09,0,0,1,48.64,24.63ZM48,9.91a3,3,0,0,0-2.38,1,4.44,4.44,0,0,0-1,2.72H51.3a4,4,0,0,0-.92-2.72A3.14,3.14,0,0,0,48,9.91Z"/><path class="cls-1" d="M75.77,24.31H71V14.11a4.9,4.9,0,0,0-.67-2.84,2.44,2.44,0,0,0-2.14-.94,3.2,3.2,0,0,0-2.89,1.33,8.23,8.23,0,0,0-.89,4.43v8.22H59.64V6.84h3.64l.64,2.24h.27a5.05,5.05,0,0,1,2.19-1.92,7.53,7.53,0,0,1,3.18-.64,6.17,6.17,0,0,1,4.63,1.64,6.64,6.64,0,0,1,1.58,4.76Z"/><path class="cls-1" d="M87.77,24.63q-8.16,0-8.16-9c0-3,.74-5.23,2.22-6.8a8.32,8.32,0,0,1,6.36-2.35A12.17,12.17,0,0,1,93.63,7.7l-1.41,3.69c-.75-.3-1.45-.55-2.09-.74a6.91,6.91,0,0,0-1.94-.29q-3.72,0-3.72,5.28,0,5.13,3.72,5.13a8.61,8.61,0,0,0,2.54-.37,9.28,9.28,0,0,0,2.35-1.15v4.08a7.45,7.45,0,0,1-2.34,1A12.88,12.88,0,0,1,87.77,24.63Z"/><path class="cls-1" d="M94.63,6.84h5.21l3.3,9.83a14.19,14.19,0,0,1,.58,3h.09a13.94,13.94,0,0,1,.67-3l3.24-9.83h5.11l-7.39,19.71a8.61,8.61,0,0,1-2.9,4.09A7.3,7.3,0,0,1,98.14,32a10.88,10.88,0,0,1-2.42-.27V28a7.87,7.87,0,0,0,1.87.21,3.35,3.35,0,0,0,2.21-.78,5,5,0,0,0,1.48-2.33l.28-.86Z"/><path class="cls-2" d="M113.22,22.52a3.07,3.07,0,0,1,.83-2.25,3.16,3.16,0,0,1,2.36-.85,2.4,2.4,0,0,1,1.7.6,2.14,2.14,0,0,1,.64,1.67,3,3,0,0,1-.86,2.2,3.07,3.07,0,0,1-2.25.84,2.54,2.54,0,0,1-1.78-.58A2.1,2.1,0,0,1,113.22,22.52Z"/><path class="cls-2" d="M132.8,6.88A6.26,6.26,0,0,1,138,9.21a10.28,10.28,0,0,1,1.85,6.52A10.18,10.18,0,0,1,138,22.3a6.31,6.31,0,0,1-5.2,2.33,7.31,7.31,0,0,1-3.1-.63,5.56,5.56,0,0,1-2.22-1.86h-.21c-.33,1.25-.52,2-.58,2.17h-2V0h2.81V5.91c0,1.17,0,2.35-.15,3.53h.15A6,6,0,0,1,132.8,6.88Zm-.47,2.32a4.39,4.39,0,0,0-3.72,1.47q-1.13,1.47-1.13,5v.13c0,2.34.39,4,1.15,5a4.45,4.45,0,0,0,3.76,1.51,3.88,3.88,0,0,0,3.45-1.7A8.86,8.86,0,0,0,137,15.7a8.5,8.5,0,0,0-1.14-4.87A4,4,0,0,0,132.33,9.2Z"/><path class="cls-2" d="M151.66,24.63a7.89,7.89,0,0,1-6.06-2.34,9,9,0,0,1-2.19-6.43,9.93,9.93,0,0,1,2-6.57A6.85,6.85,0,0,1,151,6.84a6.68,6.68,0,0,1,5.16,2.09,8,8,0,0,1,1.92,5.65v1.7H146.31a6.56,6.56,0,0,0,1.49,4.44,5.14,5.14,0,0,0,4,1.51,13.61,13.61,0,0,0,2.61-.24,14.71,14.71,0,0,0,2.89-.94v2.47a14.4,14.4,0,0,1-2.67.86A15.77,15.77,0,0,1,151.66,24.63ZM151,9.14a4.05,4.05,0,0,0-3.18,1.3,6,6,0,0,0-1.39,3.61h8.73A5.55,5.55,0,0,0,154,10.39,3.81,3.81,0,0,0,151,9.14Z"/><path class="cls-2" d="M168.14,22.33a9.34,9.34,0,0,0,1.28-.11,5.85,5.85,0,0,0,1.11-.25v2.16a6.69,6.69,0,0,1-1.21.33,8.42,8.42,0,0,1-1.66.17c-3.36,0-5-1.77-5-5.3v-10H160.2V8l2.46-1.12,1.12-3.66h1.67V7.16h5V9.34h-5v9.91a3.33,3.33,0,0,0,.71,2.28A2.54,2.54,0,0,0,168.14,22.33Z"/></g></g></svg>