<svg xmlns="http://www.w3.org/2000/svg" viewBox="0 0 165.75 25.69"><title>logo-bazabet</title><g id="Layer_2" data-name="Layer 2"><g id="Desktop"><path d="M18,11.21,16.53,12H.75L0,11.21V.78L.75,0h9.89c6.18,0,9.3,2.55,9.3,6.59A5.48,5.48,0,0,1,18,11.21ZM.75,25.65,0,24.91V13.77L.75,13H16.64l1.7.75a5.58,5.58,0,0,1,2.2,4.75c0,4.4-3.55,7.13-9.51,7.13ZM6.85,9.72h3.47c2,0,2.84-.64,2.84-2.13S12.35,5.5,10.54,5.5H6.85Zm0,10.36h3.62c2.12,0,2.94-.67,2.94-2.23s-.92-2.28-3.12-2.28H6.81v4.51Z" fill="#00b339"/><path d="M38,20.93H29.59l-1,4-.92.71H21.93l-.5-.71,3.48-11.21.95-.71h5l.53.71L30.87,16h5.81l-.53-2.24.53-.71h5.15l1,.71L46.3,24.94l-.5.71H40L39,24.94Zm4-9.68-.5.71H36.4l-.92-.71-1.28-5h-.82l-1.27,5-.93.71h-5l-.5-.71L29,.75l1-.71h7.91l1,.71Z" fill="#00b339"/><path d="M48.43,19.65l5-6.06,1.21-.53h6.74l.25.53-4.12,5v.81H67.76l.75.75v4.75l-.75.75H49.17l-.74-.75ZM63.5,11.39l-1.2.53H55.56l-.25-.53,3.58-4.33V6.24H49.6l-.75-.74V.75L49.6,0H67.12l.75.75V6Z" fill="#00b339"/><path d="M86.78,20.93H78.4l-1,4-.93.71H70.74l-.49-.71,3.47-11.21,1-.71h5l.53.71L79.68,16H85.5L85,13.73,85.5,13h5.14l1,.71,3.51,11.21-.49.71H88.76l-.92-.71Zm4.08-9.68-.5.71H85.25l-.92-.71-1.28-5H82.2l-1.28,5L80,12H75l-.49-.71L77.8.75l1-.71h7.91l1,.71Z" fill="#00b339"/><path d="M115.87,11.21l-1.42.75H98.66l-.74-.75V.78L98.66,0h9.9c6.17,0,9.29,2.55,9.29,6.59A5.59,5.59,0,0,1,115.87,11.21ZM98.66,25.65l-.74-.74V13.77l.74-.75h15.9l1.7.75a5.6,5.6,0,0,1,2.2,4.75c0,4.4-3.55,7.13-9.51,7.13Zm6.1-15.93h3.48c2,0,2.84-.64,2.84-2.13s-.82-2.09-2.63-2.09h-3.69Zm0,10.36h3.62c2.13,0,3-.67,3-2.23s-.92-2.28-3.12-2.28h-3.48v4.51Z" fill="#00b339"/><path d="M123.35.07h16.86l.74.75V5.53l-.74.75H129.56V9h9.9l.75.75v1.45l-.75.75H123.35l-.7-.75V.78Zm-.7,24.83V13.77l.74-.75H139.5l.74.75v1.45l-.74.74h-9.9v3.48h10.64l.75.75v4.75l-.75.75H123.35Z" fill="#00b339"/><path d="M158.23,6.28v4.93l-.75.75H152l-.74-.75V6.28h-6.92l-.74-.75V.78l.74-.74H165l.75.74V5.53l-.75.75Zm-7,18.62V13.77L152,13h5.5l.74.75V24.9l-.74.75H152Z" fill="#00b339"/></g></g></svg>