<svg xmlns="http://www.w3.org/2000/svg" viewBox="0 0 127.75 32.11"><title>logo-leon</title><g id="Layer_2" data-name="Layer 2"><g id="Desktop"><g id="Слой_1"><circle cx="75.92" cy="16.05" r="16.05" fill="#fefefe"/><path d="M0,28.25,7.26,1.1A.69.69,0,0,1,7.93.58h7.7a.71.71,0,0,1,.56.27.65.65,0,0,1,.11.6L10.71,22.37a.66.66,0,0,0,.12.6.67.67,0,0,0,.55.27H26.26a.67.67,0,0,1,.55.27.66.66,0,0,1,.12.6l-1.21,4.5a.69.69,0,0,1-.67.51H.69A.69.69,0,0,1,0,28.25Z" fill="#fff"/><path d="M37.13.58H59.7a.8.8,0,0,1,.65.32.78.78,0,0,1,.15.72l-.15.56a20.86,20.86,0,0,0-2.79,4,.53.53,0,0,1-.48.29H44.23a.81.81,0,0,0-.8.62l-1,3.72a.87.87,0,0,0,.15.73.8.8,0,0,0,.66.32H54.74a.81.81,0,0,1,.66.32.81.81,0,0,1,.14.72L54.45,17a.82.82,0,0,1-.8.62H41.27a.81.81,0,0,0-.8.61l-1.09,4a.87.87,0,0,0,.15.73.81.81,0,0,0,.66.32h15.4a.77.77,0,0,1,.66.33.8.8,0,0,1,.15.73l-1.13,4.13a.83.83,0,0,1-.81.61h-25a.68.68,0,0,1-.55-.26.73.73,0,0,1-.12-.61L35.92,1.51A1.22,1.22,0,0,1,37.13.58Z" fill="#fff"/><path d="M104.12,14.47l-3.69,14.17a.63.63,0,0,1-.63.48L92,29.07a.49.49,0,0,1-.41-.19.47.47,0,0,1-.08-.44v-.05a19.76,19.76,0,0,0,4.29-12.34,18.2,18.2,0,0,0-.14-2.35,1.92,1.92,0,0,1,.06-.79L98.86,1.36a1.05,1.05,0,0,1,1-.78h6a1.05,1.05,0,0,1,.94.56l7.75,14.75a.28.28,0,0,0,.28.15.25.25,0,0,0,.23-.21L119.27.58h7.84a.63.63,0,0,1,.51.25.6.6,0,0,1,.11.56l-7.17,26.94a1.05,1.05,0,0,1-1,.79h-5.88a1,1,0,0,1-.92-.53l-8.09-14.18a.24.24,0,0,0-.27-.14A.29.29,0,0,0,104.12,14.47Z" fill="#fff"/><path d="M73.77.14A16.11,16.11,0,0,0,61.46,9.05l8.33-1.62ZM60.07,13.48a15.64,15.64,0,0,0-.21,2.57A16,16,0,0,0,64.8,27.64l1-8.16Zm8.66,16.93a16,16,0,0,0,14.55-.09L76,26.9Zm18.72-3.18A16.05,16.05,0,0,0,92,16.05a15.69,15.69,0,0,0-.17-2.28l-5.32,5.74ZM90.28,8.88A16.12,16.12,0,0,0,78.62.22l3.91,7.29Z" fill="#d62628"/><polygon points="75.86 23.72 79.46 21.11 83.06 18.5 81.68 14.28 80.31 10.05 75.86 10.05 71.42 10.05 70.05 14.28 68.68 18.5 72.27 21.11 75.86 23.72" fill="#d62628"/></g></g></g></svg>