<svg xmlns="http://www.w3.org/2000/svg" viewBox="0 0 127.75 31.96"><title>logo-leon-min</title><g id="Layer_2" data-name="Layer 2"><g id="Desktop"><g id="Слой_1"><path d="M0,28.11,7.26,1A.7.7,0,0,1,7.93.44h7.7a.68.68,0,0,1,.56.27.65.65,0,0,1,.11.6L10.71,22.23a.64.64,0,0,0,.12.59.66.66,0,0,0,.55.28H26.26a.65.65,0,0,1,.55.27.66.66,0,0,1,.12.6l-1.21,4.5a.69.69,0,0,1-.67.51H.69a.68.68,0,0,1-.54-.27A.69.69,0,0,1,0,28.11Z" fill="#575f65"/><path d="M37.13.44H59.7a.8.8,0,0,1,.65.32.78.78,0,0,1,.15.72L60.35,2a20.55,20.55,0,0,0-2.79,4,.55.55,0,0,1-.48.29H44.23a.81.81,0,0,0-.8.62l-1,3.72a.85.85,0,0,0,.15.72.81.81,0,0,0,.66.33H54.74a.81.81,0,0,1,.66.32.81.81,0,0,1,.14.72l-1.09,4.13a.82.82,0,0,1-.8.63H41.27a.81.81,0,0,0-.8.61l-1.09,4a.84.84,0,0,0,.15.72.82.82,0,0,0,.66.33h15.4a.77.77,0,0,1,.66.33.79.79,0,0,1,.15.72l-1.13,4.13a.82.82,0,0,1-.81.62h-25a.66.66,0,0,1-.55-.27.72.72,0,0,1-.12-.6L35.92,1.36A1.23,1.23,0,0,1,37.13.44Z" fill="#575f65"/><path d="M104.12,14.33l-3.69,14.16a.64.64,0,0,1-.63.49L92,28.93a.52.52,0,0,1-.41-.19.49.49,0,0,1-.08-.45v-.05a19.73,19.73,0,0,0,4.29-12.33,18.46,18.46,0,0,0-.14-2.36,1.94,1.94,0,0,1,.06-.79L98.86,1.22a1.05,1.05,0,0,1,1-.78h6a1.05,1.05,0,0,1,.94.56l7.75,14.75a.27.27,0,0,0,.28.14.26.26,0,0,0,.23-.2L119.27.44h7.84a.61.61,0,0,1,.51.25.6.6,0,0,1,.11.56l-7.17,26.94a1.06,1.06,0,0,1-1,.79h-5.88a1.07,1.07,0,0,1-.92-.53l-8.09-14.19a.25.25,0,0,0-.27-.13A.27.27,0,0,0,104.12,14.33Z" fill="#575f65"/><path d="M73.77,0A16.09,16.09,0,0,0,61.46,8.91l8.33-1.63ZM60.07,13.34a15.55,15.55,0,0,0-.21,2.57A16,16,0,0,0,64.8,27.49l1-8.15Zm8.66,16.93a16.12,16.12,0,0,0,14.55-.09L76,26.76Zm18.72-3.19A16,16,0,0,0,92,15.91a15.59,15.59,0,0,0-.17-2.28l-5.32,5.73ZM90.28,8.74A16.07,16.07,0,0,0,78.62.08l3.91,7.29Z" fill="#575f65"/><polygon points="75.86 23.58 79.46 20.97 83.06 18.36 81.68 14.13 80.31 9.91 75.86 9.91 71.42 9.91 70.05 14.13 68.68 18.36 72.27 20.97 75.86 23.58" fill="#575f65"/></g></g></g></svg>