<svg xmlns="http://www.w3.org/2000/svg" viewBox="0 0 136.12 32.11"><title>logo-pm-min</title><g id="Layer_2" data-name="Layer 2"><g id="Desktop"><path d="M3.09.5A.65.65,0,0,1,3.71,0h5.4c3.43,0,5.69,1.75,5.12,5.4A5.47,5.47,0,0,1,8.6,10.27H6.17L5.29,14.2a.65.65,0,0,1-.63.5h-4A.64.64,0,0,1,0,13.91ZM7,6.56h.52c.94,0,2-.16,2.17-1.35S9,4,8.11,4H7.6Z" fill="#575f65"/><path d="M30.25.5a.65.65,0,0,1,.62-.5H36.1c3.33-.09,6.13,1.47,5.55,5.17-.35,2.22-1.82,3.07-3.9,3.74h0c.6.29,1.56,3.45,2,5a.64.64,0,0,1-.61.82H35.24a.63.63,0,0,1-.62-.5A31.39,31.39,0,0,0,33.51,10h-.1l-1,4.19a.65.65,0,0,1-.62.5h-4a.65.65,0,0,1-.62-.79Zm4,6h.37c1,0,2.11-.19,2.31-1.28s-.53-1.28-1.64-1.28h-.45Z" fill="#575f65"/><path d="M15.71,14.7H11.86a.64.64,0,0,1-.57-.94L18.2.35A.62.62,0,0,1,18.76,0h4.5a.63.63,0,0,1,.63.55L25.77,14a.65.65,0,0,1-.63.73H21.25a.65.65,0,0,1-.64-.61l-.07-1.23H16.91L16.3,14.3A.64.64,0,0,1,15.71,14.7Zm4.65-5.33s-.1-2.32-.21-4h-.1l-1.69,4Z" fill="#575f65"/><path d="M44.75,0h4a.64.64,0,0,1,.62.78L46.33,14.2a.65.65,0,0,1-.63.5h-4a.65.65,0,0,1-.63-.79L44.13.5A.63.63,0,0,1,44.75,0Z" fill="#575f65"/><path d="M51.85.5,48.8,13.92a.64.64,0,0,0,.62.78H73.8a.65.65,0,0,0,.63-.5l3-13.42A.63.63,0,0,0,76.85,0H52.47A.64.64,0,0,0,51.85.5Z" fill="#575f65"/><path d="M35.09,17.59,32,31a.64.64,0,0,0,.62.78H57a.63.63,0,0,0,.62-.5l3.05-13.42a.64.64,0,0,0-.62-.78H35.71A.63.63,0,0,0,35.09,17.59Z" fill="#575f65"/><path d="M83.14,31.79H79.28a.64.64,0,0,1-.57-.93l6.91-13.42a.65.65,0,0,1,.57-.35h4.5a.65.65,0,0,1,.63.55l1.87,13.42a.64.64,0,0,1-.63.73H88.67a.63.63,0,0,1-.63-.61L88,30H84.34l-.61,1.45A.65.65,0,0,1,83.14,31.79Zm4.65-5.33s-.1-2.31-.22-4h-.09l-1.69,4Z" fill="#575f65"/><path d="M63.78,17.09h4.63a.63.63,0,0,1,.63.61l.38,7.1h.1c.28-.64,3-5.93,3.66-7.36a.65.65,0,0,1,.57-.35h5.47a.64.64,0,0,1,.62.78l-3,13.42a.63.63,0,0,1-.62.5h-3.3A.64.64,0,0,1,72.3,31l1.62-7.28H73.8c-.15.43-3.07,6.21-3.83,7.71a.62.62,0,0,1-.56.35h-2.2a.64.64,0,0,1-.64-.6c-.1-1.79-.38-7-.33-7.46l-1.69,7.56a.65.65,0,0,1-.63.5H60.75a.64.64,0,0,1-.62-.78l3-13.42A.63.63,0,0,1,63.78,17.09Z" fill="#575f65"/><path d="M95,17.09h11a.64.64,0,0,1,.62.78l-.77,3.4a.63.63,0,0,1-.62.49h-2.87l-2.2,9.53a.63.63,0,0,1-.62.5h-4a.65.65,0,0,1-.63-.79L97,21.76H94.23a.64.64,0,0,1-.62-.78l.76-3.39A.65.65,0,0,1,95,17.09Z" fill="#575f65"/><path d="M122.81,17.09h4a.65.65,0,0,1,.63.78L126.52,22h3.28l1-4.45a.65.65,0,0,1,.63-.5h4a.63.63,0,0,1,.62.78L133,31.29a.65.65,0,0,1-.63.5h-4a.64.64,0,0,1-.62-.78l1-4.33h-3.3l-1,4.61a.65.65,0,0,1-.63.5h-4a.64.64,0,0,1-.62-.78l3.06-13.42A.65.65,0,0,1,122.81,17.09Z" fill="#575f65"/><path d="M115.32,22.22a.7.7,0,0,1-.55-.31,1.13,1.13,0,0,0-1-.43c-1.42,0-2.5,2.56-2.62,3.44s-.07,2.25,1.07,2.46a1.68,1.68,0,0,0,1.59-.8.65.65,0,0,1,.54-.29h4.14a.64.64,0,0,1,.62.78c-.34,1.55-1.66,4.91-6.74,5s-7.25-3-6.8-7.16c.52-4.86,3.76-8.38,9.1-8.16,5.06.21,5.57,3.42,5.56,4.8a.65.65,0,0,1-.64.64Z" fill="#575f65"/></g></g></svg>